HIERARCHY
ROOT root
{
	OFFSET 0.000000 0.000000 0.000000
	CHANNELS 6 Xposition Yposition Zposition Zrotation Yrotation Xrotation
	JOINT lhip
	{
		OFFSET 0.058581 -0.082280 -0.017664
		CHANNELS 3 Zrotation Yrotation Xrotation
		JOINT lknee
		{
			OFFSET 0.043451 -0.386469 0.008037
			CHANNELS 3 Zrotation Yrotation Xrotation
			JOINT lankle
			{
				OFFSET -0.014790 -0.426874 -0.037428
				CHANNELS 3 Zrotation Yrotation Xrotation
				JOINT ltoe
				{
					OFFSET 0.041054 -0.060286 0.122042
					CHANNELS 3 Zrotation Yrotation Xrotation
					End Site
					{
						OFFSET 0.000000 0.000000 0.000000
					}
				}
			}
		}
	}
	JOINT rhip
	{
		OFFSET -0.060310 -0.090513 -0.013543
		CHANNELS 3 Zrotation Yrotation Xrotation
		JOINT rknee
		{
			OFFSET -0.043257 -0.383688 -0.004843
			CHANNELS 3 Zrotation Yrotation Xrotation
			JOINT rankle
			{
				OFFSET 0.019056 -0.420046 -0.034562
				CHANNELS 3 Zrotation Yrotation Xrotation
				JOINT rtoe
				{
					OFFSET -0.034840 -0.062106 0.130323
					CHANNELS 3 Zrotation Yrotation Xrotation
					End Site
					{
						OFFSET 0.000000 0.000000 0.000000
					}
				}
			}
		}
	}
	JOINT lowerback
	{
		OFFSET 0.004439 0.124404 -0.038385
		CHANNELS 3 Zrotation Yrotation Xrotation
		JOINT upperback
		{
			OFFSET 0.004488 0.137956 0.026820
			CHANNELS 3 Zrotation Yrotation Xrotation
			JOINT chest
			{
				OFFSET -0.002265 0.056032 0.002855
				CHANNELS 3 Zrotation Yrotation Xrotation
				JOINT lowerneck
				{
					OFFSET -0.013390 0.211636 -0.033468
					CHANNELS 3 Zrotation Yrotation Xrotation
					JOINT upperneck
					{
						OFFSET 0.010113 0.088937 0.050410
						CHANNELS 3 Zrotation Yrotation Xrotation
						End Site
						{
							OFFSET 0.000000 0.000000 0.000000
						}
					}
				}
				JOINT lclavicle
				{
					OFFSET 0.071702 0.114000 -0.018898
					CHANNELS 3 Zrotation Yrotation Xrotation
					JOINT lshoulder
					{
						OFFSET 0.122921 0.045205 -0.019046
						CHANNELS 3 Zrotation Yrotation Xrotation
						JOINT lelbow
						{
							OFFSET 0.255332 -0.015649 -0.022946
							CHANNELS 3 Zrotation Yrotation Xrotation
							JOINT lwrist
							{
								OFFSET 0.265709 0.012698 -0.007375
								CHANNELS 3 Zrotation Yrotation Xrotation
								End Site
								{
									OFFSET 0.000000 0.000000 0.000000
								}
							}
						}
					}
				}
				JOINT rclavicle
				{
					OFFSET -0.082954 0.112472 -0.023707
					CHANNELS 3 Zrotation Yrotation Xrotation
					JOINT rshoulder
					{
						OFFSET -0.113228 0.046853 -0.008472
						CHANNELS 3 Zrotation Yrotation Xrotation
						JOINT relbow
						{
							OFFSET -0.260127 -0.014369 -0.031269
							CHANNELS 3 Zrotation Yrotation Xrotation
							JOINT rwrist
							{
								OFFSET -0.269108 0.006794 -0.006027
								CHANNELS 3 Zrotation Yrotation Xrotation
								End Site
								{
									OFFSET 0.000000 0.000000 0.000000
								}
							}
						}
					}
				}
			}
		}
	}
}
MOTION
Frames: 11
Frame Time: 0.033333
-1.297533 0.615058 1.478174 11.941016 0.668770 95.785116 1.304649 -10.167683 -20.749447 -6.916667 1.868586 12.347111 3.844171 11.186279 -3.970861 0.000000 -0.000000 0.000000 -7.351850 8.510867 -32.184097 1.096940 -4.698497 38.272557 9.818146 -6.163449 -5.294170 0.000000 -0.000000 0.000000 -2.841936 0.994648 11.592760 -1.706206 1.950167 -13.813333 -2.884048 -0.680473 9.342413 0.804371 16.568913 2.607389 -1.860801 12.487471 29.175155 -19.007164 10.948518 -4.788125 -56.495317 -9.574544 14.293002 5.420449 -34.958400 6.075701 -5.017659 -15.092720 -13.756448 16.611521 -8.338383 -1.621985 62.818060 3.685453 24.224167 -6.123936 29.601095 4.052913 12.621306 9.880820 -16.857654 
-1.307125 0.610445 1.478576 17.265520 0.833682 96.222029 2.137815 -10.789954 -21.330148 -7.318234 -0.754076 12.437350 2.711242 9.881631 -3.970667 0.000000 -0.000000 0.000000 -7.730063 9.940847 -31.559389 2.919741 -0.065385 33.060393 11.384298 -1.704647 -5.230367 0.000000 -0.000000 0.000000 -2.796032 1.113754 11.665655 -1.506709 1.693257 -13.526844 -2.802411 -0.760278 9.208162 0.715414 16.897194 2.717132 -2.021930 11.720433 28.653477 -18.992160 10.925647 -5.154104 -56.776953 -9.825202 14.642620 6.125757 -34.673272 5.065954 -5.463579 -15.051061 -13.500824 16.672226 -8.620169 -1.693030 62.194191 3.735214 23.941099 -5.863177 29.919221 4.648995 13.337398 9.661268 -16.781034 
-1.315713 0.604783 1.478812 22.571050 0.723491 96.301257 2.492964 -11.287109 -21.315777 -7.714290 -3.582562 12.229777 1.217517 8.696243 -4.489538 0.000000 -0.000000 0.000000 -8.102487 10.877552 -30.190014 3.752922 3.901369 28.760071 13.017125 1.750214 -4.743077 0.000000 -0.000000 0.000000 -2.688385 1.351649 12.198933 -1.489959 1.298842 -13.371160 -2.778778 -0.879012 9.067761 0.637063 17.102064 2.907585 -1.997985 10.882361 28.140011 -18.888600 10.620360 -5.365689 -56.916550 -9.902119 14.879561 6.570331 -34.019716 4.547930 -5.756663 -15.069028 -13.263041 16.583826 -8.675127 -1.830582 61.741385 3.676824 23.528575 -5.630079 30.115765 5.054536 13.100580 9.309638 -17.027359 
-1.324792 0.597827 1.479069 27.951541 0.539824 96.172274 2.824382 -12.059886 -21.026893 -7.906927 -6.258551 11.903623 -0.400470 7.412166 -5.412189 0.000000 -0.000000 0.000000 -8.116549 11.228115 -28.277461 3.679892 5.296623 25.610484 14.228693 3.089222 -4.149563 0.000000 -0.000000 0.000000 -2.602199 1.629254 12.751512 -1.489550 0.943418 -13.118755 -2.770595 -1.000658 9.059875 0.592660 17.373478 3.262776 -1.981970 10.178416 27.511611 -18.700864 10.116511 -5.339313 -56.857468 -10.283068 15.042463 6.989759 -32.936280 3.902691 -6.391292 -15.058502 -13.278714 16.477742 -8.741987 -2.165536 61.532673 3.517088 23.252137 -5.792311 30.216579 4.893705 12.772864 9.196473 -17.819246 
-1.333672 0.589750 1.479067 33.134839 0.316230 96.160818 3.188782 -12.648548 -20.929353 -8.051056 -8.603574 11.656068 -1.812060 5.907973 -6.417135 0.000000 -0.000000 0.000000 -7.718362 10.303848 -26.216701 3.557969 4.634239 23.345137 14.635240 3.164395 -2.601277 0.000000 -0.000000 0.000000 -2.633696 2.040477 13.180299 -1.483186 0.535977 -13.076169 -2.608209 -1.083940 9.024686 0.466586 17.267311 3.611710 -1.836270 9.716151 27.057429 -18.428209 9.608619 -5.274723 -56.809861 -10.343896 14.926533 7.313565 -31.893439 3.761028 -6.246035 -15.097490 -12.737312 15.967978 -8.436830 -1.960970 61.501820 3.318660 22.667078 -6.068692 30.497148 4.451758 12.167128 9.142560 -18.661870 
-1.342476 0.580711 1.478848 37.832815 0.056727 96.103851 3.500923 -12.783625 -20.835259 -8.074966 -10.635293 11.463435 -2.816587 4.386428 -7.440255 0.000000 -0.000000 0.000000 -6.809968 8.654438 -23.895948 2.759147 3.061700 21.279084 13.558423 1.807244 -2.195286 0.000000 -0.000000 0.000000 -2.733985 2.732292 13.889889 -1.627575 0.440360 -13.554760 -2.330746 -1.204202 8.942793 0.292979 16.664437 3.882383 -1.591421 8.964618 26.995554 -18.248997 9.222301 -5.068022 -56.513081 -10.353190 14.465497 7.305478 -31.025543 4.048772 -6.745336 -15.039258 -12.703998 15.495885 -8.349180 -1.913778 61.379917 2.815405 21.909874 -6.118395 30.946608 4.549563 11.852564 9.090644 -19.309796 
-1.351079 0.572975 1.478550 42.114949 -0.323425 96.490076 3.779298 -13.050930 -21.758399 -8.163389 -12.233059 11.915990 -3.725131 3.154165 -7.957485 0.000000 -0.000000 0.000000 -6.393370 6.271686 -22.372556 2.446825 1.666113 19.218496 13.045854 1.498031 -1.991991 0.000000 -0.000000 0.000000 -2.343605 3.508388 13.888413 -1.963485 0.087035 -13.775866 -2.626027 -1.026152 9.090048 0.096627 16.233860 3.526143 -1.494898 7.761147 27.325020 -18.433090 9.303062 -5.363900 -55.658906 -10.421042 14.064381 7.137374 -30.429739 4.415810 -7.021616 -15.062270 -12.378223 15.755818 -8.333544 -2.134569 60.943088 2.756114 21.305232 -6.098273 31.004926 4.806391 11.630862 9.074459 -19.677172 
-1.359572 0.566074 1.478770 45.903454 -0.532477 96.891271 4.128081 -13.738208 -22.884199 -7.956618 -13.402077 12.572791 -3.941162 2.818659 -8.148312 0.000000 -0.000000 0.000000 -6.339674 4.822836 -21.450492 2.756236 0.156534 17.688972 13.110358 1.049302 -1.365643 0.000000 -0.000000 0.000000 -1.706732 3.999586 13.648605 -2.266738 -0.000657 -13.671565 -3.043281 -0.698341 9.225644 -0.346829 15.484010 3.130810 -1.560169 6.704319 27.521417 -18.967031 9.358970 -5.518073 -54.655536 -10.410259 13.697609 7.688688 -30.108539 3.541989 -6.724098 -14.974837 -12.491975 15.965595 -7.835793 -2.281775 60.660500 3.037342 21.201678 -6.464984 30.519190 4.325019 11.091713 9.128231 -20.094357 
-1.368199 0.558606 1.478623 49.504417 -0.468691 97.061050 4.789589 -14.109719 -24.149739 -7.930438 -13.670072 13.946558 -3.747056 3.151047 -8.475320 0.000000 -0.000000 0.000000 -5.767247 4.252834 -20.527869 3.026463 -1.067965 16.553181 12.465604 -0.179468 -1.508652 0.000000 -0.000000 0.000000 -1.255471 4.185349 14.211906 -2.430588 0.111183 -14.395654 -3.133250 -0.397872 9.548551 -0.873445 14.313649 2.466779 -1.496723 5.989215 27.513438 -19.155015 9.809397 -5.631913 -54.309426 -10.117524 13.285485 8.238707 -30.199496 2.819837 -5.596811 -14.778826 -13.380034 15.590387 -7.365605 -2.572484 60.720390 3.325652 21.303254 -6.611697 30.111439 4.122928 10.456777 9.120168 -20.490466 
-1.375447 0.551238 1.477805 53.330929 -0.677481 97.050247 5.254693 -14.153116 -25.640858 -7.851572 -11.794785 15.785614 -2.910593 4.258125 -9.020780 0.000000 -0.000000 0.000000 -5.244994 3.634608 -19.177494 2.980954 -2.151045 15.142528 11.384990 -1.714155 -2.119924 0.000000 -0.000000 0.000000 -1.025437 4.347727 14.822206 -2.513197 -0.133960 -15.046285 -3.116271 -0.459470 9.916944 -1.398616 12.890903 1.565612 -1.594612 5.571727 27.717779 -19.117600 10.369279 -5.510112 -54.341947 -9.680711 12.726216 8.668510 -30.308424 2.216807 -4.677587 -14.605934 -14.510383 15.160471 -6.820775 -2.920322 60.601421 3.709010 21.727201 -7.139735 30.090527 3.933655 11.045761 9.142390 -20.509787 
-1.381394 0.544535 1.476381 57.098116 -0.845914 96.652989 5.395765 -13.083980 -26.650537 -7.068060 -7.753485 17.321881 -1.971588 6.155040 -9.243175 0.000000 -0.000000 0.000000 -4.614037 2.819368 -17.734907 2.658217 -3.424191 14.245197 10.675711 -2.698834 -2.590404 0.000000 -0.000000 0.000000 -0.724229 4.444622 16.238156 -2.603951 -0.438026 -15.855896 -2.985363 -0.473778 10.096855 -1.778160 11.440238 0.613444 -1.714994 4.948909 27.897876 -19.065939 10.708011 -5.367549 -54.592814 -9.235758 11.980940 8.657475 -30.092421 2.451928 -4.403087 -14.627896 -15.125640 14.887299 -6.770075 -3.299842 60.256833 4.210922 21.543462 -7.332183 30.596434 3.923123 10.428081 9.151907 -20.189183 
